<?xml version="1.0" encoding="utf-8"?>
<!-- Generator: Adobe Illustrator 23.0.5, SVG Export Plug-In . SVG Version: 6.00 Build 0)  -->
<svg version="1.1" id="Capa_1" xmlns="http://www.w3.org/2000/svg" xmlns:xlink="http://www.w3.org/1999/xlink" x="0px" y="0px"
	 viewBox="0 0 100 50" style="enable-background:new 0 0 100 50;" xml:space="preserve">
<style type="text/css">
	.st0{fill:#F7F7F8;}
	.st1{font-family:'EnglandSignature';}
	.st2{font-size:20.4711px;}
	.st3{fill:#FFFFFF;}
</style>
<rect x="-0.14" y="-0.3" width="100.08" height="50.4"/>
<text transform="matrix(0.8116 0 0 1 3.8345 30.4609)" class="st0 st1 st2">Burashi Dezain</text>
<g>
	<path d="M96.06,6.85c0.04,0.83-0.24,1.43-0.55,1.97c-1.06,1.86-2.12,3.72-3.21,5.53c-0.87,1.45-1.61,3.06-2.3,4.76
		c-0.44,1.1-0.92,2.17-1.44,3.17c-0.36,0.69-0.83,1.19-1.38,1.39c-0.01,0-0.01,0.02-0.02,0.02c-0.66-0.18-0.81,0.77-1.07,1.44
		c-0.26,0.67-0.51,1.37-0.75,2.06c-0.12,0.34-0.27,0.53-0.52,0.49c-0.45-0.07-0.88,0.16-1.29,0.4c-0.17,0.09-0.33,0.23-0.41,0.56
		c-0.09,0.35-0.48,0.45-0.67,0.25c-0.22-0.23-0.24-0.5-0.06-0.81c0.4-0.65,0.8-1.28,1.2-1.93c0.19-0.31,0.36-0.66,0.56-0.97
		c0.07-0.12,0.19-0.15,0.28-0.25c0.08-0.1,0.15-0.23,0.23-0.35c-0.08-0.11-0.15-0.3-0.24-0.31c-0.06-0.01-0.15,0.2-0.2,0.33
		c-0.06,0.17-0.08,0.41-0.16,0.54c-0.42,0.69-0.85,1.36-1.28,2.03c-0.2,0.32-0.42,0.63-0.61,0.97c-0.08,0.14-0.11,0.09-0.17,0.02
		c-0.23-0.29-0.26-0.98-0.01-1.24c0.39-0.4,0.45-1.08,0.54-1.71c0.07-0.51,0.03-1.06,0.07-1.58c0.01-0.16,0.12-0.34,0.21-0.44
		c0.58-0.63,1.16-1.28,1.75-1.86c0.29-0.28,0.42-0.63,0.46-1.18c0.06-0.86,0.33-1.56,0.66-2.19c0.66-1.23,1.48-2.11,2.28-3.01
		c0.82-0.92,1.59-1.95,2.28-3.14c0.99-1.68,1.99-3.34,2.99-5c0.28-0.47,0.57-0.92,0.88-1.33c0.43-0.58,1.04-0.79,1.55-0.15
		C95.96,5.72,96.09,6.22,96.06,6.85z M88.01,20.76c0.05-0.03,0.09-0.05,0.13-0.09c0.04-0.05,0.08-0.11,0.12-0.18
		c0.43-0.93,0.89-1.83,1.3-2.8c0.47-1.1,0.94-2.18,1.52-3.14c1.23-2.06,2.45-4.14,3.67-6.23C95,7.86,95.25,7.36,95.5,6.86
		c0.21-0.43,0.08-1.2-0.24-1.37c-0.4-0.22-0.75-0.02-1.04,0.43c-0.61,0.94-1.21,1.92-1.8,2.9c-0.71,1.18-1.4,2.4-2.12,3.58
		c-0.35,0.58-0.71,1.14-1.11,1.63c-0.73,0.9-1.49,1.73-2.22,2.62c-0.35,0.42-0.66,0.9-1,1.38C86.86,18.56,87.55,19.39,88.01,20.76z
		 M88.33,22c0.06-0.08,0.11-0.15,0.15-0.23c0.4-0.86,0.84-1.69,1.19-2.6c0.71-1.83,1.49-3.54,2.42-5.08
		c1.04-1.72,2.04-3.5,3.06-5.26c0.15-0.25,0.28-0.52,0.42-0.79c0.22-0.45,0.3-1.11,0.2-1.6c-0.05,0.16-0.09,0.37-0.16,0.53
		c-0.18,0.38-0.36,0.77-0.56,1.11c-1.37,2.33-2.75,4.64-4.1,7c-0.41,0.72-0.78,1.54-1.13,2.36c-0.54,1.23-1,2.56-1.71,3.55
		C88.18,21.32,88.25,21.63,88.33,22z M82.07,27.73c0.03,0.02,0.05,0.04,0.08,0.06c0.05-0.08,0.11-0.16,0.16-0.25
		c0.42-0.72,0.85-1.43,1.27-2.16c0.18-0.31,0.44-0.56,0.37-1.12c0-0.03,0.02-0.06,0.03-0.1c0.14-0.67,0.72-1.02,1.07-0.16
		c0.35-0.6,0.7-1.19,1.07-1.83c-0.13-0.21-0.27-0.5-0.44-0.69c-0.16-0.18-0.35-0.46-0.56-0.25c-0.7,0.71-1.38,1.47-2.07,2.19
		c-0.16,0.16-0.19,0.35-0.2,0.64c-0.01,0.49-0.02,0.99-0.09,1.45c-0.11,0.64-0.17,1.35-0.57,1.74
		C82.11,27.32,82.11,27.57,82.07,27.73z M86.23,22.49c-0.27,0.41-0.52,0.8-0.77,1.2c-0.18,0.3-0.36,0.58-0.42,1.06
		c-0.05,0.47-0.25,0.64-0.54,0.66c-0.07,0-0.16,0.02-0.2,0.1c-0.59,0.98-1.18,1.98-1.77,2.97c0.18,0.24,0.28,0.04,0.37-0.14
		c0.43-0.88,1.02-1.23,1.65-1.49c0.12-0.05,0.26-0.18,0.33-0.35c0.47-1.08,0.92-2.18,1.39-3.27C86.39,22.96,86.39,22.74,86.23,22.49
		z M87.6,20.46c-0.38-0.68-0.73-1.33-1.22-1.67c-0.08-0.06-0.23-0.04-0.29,0.05c-0.3,0.39-0.5,0.9-0.52,1.49
		c0.28,0.37,0.53,0.71,0.78,1.04c0.04,0.05,0.1,0.13,0.14,0.11C86.89,21.27,87.26,20.95,87.6,20.46z M87.69,20.72
		c-0.39,0.35-0.76,0.68-1.14,1.02c0.08,0.21,0.17,0.44,0.29,0.74c0.37-0.34,0.74-0.67,1.11-1.01
		C87.84,21.15,87.76,20.92,87.69,20.72z M85.23,20.61c0.7,0.6,1.35,1.28,1.52,2.73c0.22-0.05,0.44-0.05,0.64-0.17
		c0.19-0.11,0.37-0.32,0.54-0.53c0.08-0.1,0.12-0.28,0.18-0.42c-0.02-0.02-0.03-0.04-0.05-0.06c-0.03,0.07-0.06,0.14-0.09,0.22
		c-0.01-0.01-0.03-0.01-0.04-0.02c0-0.18,0-0.36,0-0.54c-0.03-0.01-0.05-0.01-0.08-0.02c-0.03,0.23-0.05,0.46-0.08,0.68
		c-0.01,0-0.02,0-0.03,0c-0.02-0.12-0.03-0.24-0.04-0.36c-0.03,0.18-0.06,0.35-0.09,0.52c-0.02-0.01-0.04-0.02-0.05-0.04
		c-0.01-0.14-0.03-0.28-0.05-0.47c-0.12,0.24,0.04,0.59-0.18,0.7c-0.01-0.18-0.01-0.32-0.02-0.47c-0.02,0-0.03-0.01-0.05-0.01
		c-0.02,0.19-0.04,0.39-0.06,0.58c-0.02,0.01-0.04,0.01-0.06,0.02c-0.03-0.13-0.05-0.26-0.09-0.42c-0.01,0.15-0.02,0.27-0.03,0.45
		c-0.08-0.05-0.17-0.06-0.2-0.14c-0.1-0.25-0.18-0.54-0.28-0.78C86.21,21.32,85.81,20.75,85.23,20.61z M83.98,27.33
		c0,0.05,0.01,0.11,0.01,0.16c0.29-0.07,0.59-0.15,0.88-0.19c0.22-0.03,0.3-0.33,0.4-0.57c0.29-0.74,0.57-1.49,0.84-2.24
		c0.14-0.38,0.25-0.79,0.38-1.18c-0.02-0.02-0.04-0.04-0.06-0.06c-0.18,0.44-0.36,0.89-0.55,1.33c-0.09,0.23-0.18,0.45-0.28,0.68
		c-0.14,0.33-0.29,0.65-0.42,0.98c-0.03,0.07-0.02,0.19-0.04,0.28c-0.01,0.1-0.03,0.19-0.05,0.31c-0.03-0.09-0.05-0.14-0.06-0.15
		c-0.12,0.15-0.21,0.33-0.32,0.39C84.48,27.18,84.23,27.24,83.98,27.33z M85.33,20.39c0.03,0,0.05,0.01,0.08,0.01
		c0.07-0.77,0.3-1.37,0.65-1.88c-0.12,0-0.3-0.02-0.34,0.1c-0.17,0.47-0.3,0.98-0.44,1.48C85.27,20.17,85.31,20.29,85.33,20.39z
		 M84.4,23.77c-0.01,0.06-0.02,0.11-0.03,0.17c0.04,0.04,0.09,0.06,0.12,0.11c0.09,0.15,0.17,0.31,0.25,0.47
		c0.04,0.07,0.07,0.13,0.11,0.2c0.04-0.07,0.11-0.14,0.11-0.22c0.03-0.29,0.02-0.57-0.18-0.67C84.66,23.78,84.52,23.79,84.4,23.77z"
		/>
	<path class="st3" d="M88.01,20.76c-0.46-1.36-1.15-2.19-2.03-2.74c0.34-0.47,0.66-0.96,1-1.38c0.73-0.89,1.49-1.72,2.22-2.62
		c0.39-0.49,0.76-1.05,1.11-1.63c0.71-1.18,1.4-2.4,2.12-3.58c0.59-0.98,1.19-1.95,1.8-2.9c0.29-0.45,0.64-0.64,1.04-0.43
		c0.31,0.17,0.45,0.95,0.24,1.37c-0.25,0.5-0.5,1-0.77,1.46c-1.22,2.08-2.43,4.17-3.67,6.23c-0.57,0.96-1.05,2.03-1.52,3.14
		c-0.41,0.96-0.86,1.87-1.3,2.8c-0.03,0.07-0.07,0.13-0.12,0.18C88.1,20.7,88.06,20.72,88.01,20.76z"/>
	<path class="st3" d="M88.33,22c-0.08-0.36-0.15-0.67-0.23-1.01c0.7-0.99,1.17-2.32,1.71-3.55c0.35-0.81,0.71-1.63,1.13-2.36
		c1.35-2.36,2.74-4.66,4.1-7c0.2-0.35,0.38-0.73,0.56-1.11c0.07-0.16,0.11-0.37,0.16-0.53c0.09,0.5,0.02,1.15-0.2,1.6
		c-0.13,0.27-0.27,0.53-0.42,0.79c-1.02,1.76-2.02,3.54-3.06,5.26c-0.93,1.53-1.71,3.24-2.42,5.08c-0.35,0.92-0.79,1.74-1.19,2.6
		C88.44,21.85,88.39,21.91,88.33,22z"/>
	<path class="st3" d="M82.07,27.73c0.04-0.16,0.04-0.41,0.11-0.47c0.4-0.39,0.46-1.1,0.57-1.74c0.08-0.46,0.09-0.96,0.09-1.45
		c0.01-0.29,0.04-0.48,0.2-0.64c0.69-0.72,1.37-1.47,2.07-2.19c0.21-0.21,0.4,0.07,0.56,0.25c0.17,0.19,0.31,0.48,0.44,0.69
		c-0.37,0.63-0.72,1.23-1.07,1.83c-0.36-0.87-0.94-0.51-1.07,0.16c-0.01,0.03-0.03,0.07-0.03,0.1c0.07,0.56-0.19,0.81-0.37,1.12
		c-0.42,0.72-0.84,1.44-1.27,2.16c-0.05,0.09-0.11,0.17-0.16,0.25C82.12,27.77,82.09,27.75,82.07,27.73z"/>
	<path class="st3" d="M86.23,22.49c0.15,0.24,0.16,0.47,0.04,0.74c-0.46,1.09-0.92,2.19-1.39,3.27c-0.07,0.17-0.21,0.3-0.33,0.35
		c-0.63,0.26-1.22,0.61-1.65,1.49c-0.09,0.18-0.19,0.38-0.37,0.14c0.59-1,1.18-1.99,1.77-2.97c0.04-0.07,0.13-0.09,0.2-0.1
		c0.29-0.02,0.49-0.19,0.54-0.66c0.05-0.48,0.23-0.76,0.42-1.06C85.71,23.29,85.97,22.91,86.23,22.49z"/>
	<path class="st3" d="M87.6,20.46c-0.34,0.49-0.71,0.81-1.11,1.02c-0.04,0.02-0.1-0.06-0.14-0.11c-0.25-0.33-0.51-0.67-0.78-1.04
		c0.02-0.59,0.22-1.09,0.52-1.49c0.07-0.09,0.21-0.11,0.29-0.05C86.87,19.13,87.22,19.78,87.6,20.46z"/>
	<path class="st3" d="M87.69,20.72c0.07,0.2,0.15,0.43,0.26,0.75c-0.37,0.34-0.74,0.67-1.11,1.01c-0.12-0.3-0.2-0.52-0.29-0.74
		C86.93,21.4,87.3,21.07,87.69,20.72z"/>
	<path class="st3" d="M85.23,20.61c0.59,0.14,0.99,0.71,1.31,1.47c0.1,0.25,0.18,0.53,0.28,0.78c0.03,0.08,0.12,0.08,0.2,0.14
		c0.01-0.18,0.02-0.3,0.03-0.45c0.03,0.16,0.06,0.29,0.09,0.42c0.02-0.01,0.04-0.01,0.06-0.02c0.02-0.19,0.04-0.39,0.06-0.58
		c0.02,0,0.03,0.01,0.05,0.01c0.01,0.15,0.01,0.29,0.02,0.47c0.22-0.11,0.06-0.46,0.18-0.7c0.02,0.19,0.03,0.33,0.05,0.47
		c0.02,0.01,0.04,0.02,0.05,0.04c0.03-0.17,0.06-0.34,0.09-0.52c0.01,0.11,0.03,0.23,0.04,0.36c0.01,0,0.02,0,0.03,0
		c0.03-0.23,0.05-0.46,0.08-0.68c0.03,0.01,0.05,0.01,0.08,0.02c0,0.18,0,0.36,0,0.54c0.01,0.01,0.03,0.01,0.04,0.02
		c0.03-0.07,0.06-0.14,0.09-0.22c0.02,0.02,0.03,0.04,0.05,0.06c-0.06,0.14-0.1,0.32-0.18,0.42c-0.17,0.2-0.35,0.42-0.54,0.53
		c-0.2,0.11-0.42,0.11-0.64,0.17C86.58,21.9,85.93,21.21,85.23,20.61z"/>
	<path class="st3" d="M83.98,27.33c0.25-0.09,0.5-0.15,0.74-0.27c0.11-0.06,0.2-0.24,0.32-0.39c0,0.01,0.02,0.06,0.06,0.15
		c0.02-0.12,0.04-0.21,0.05-0.31c0.01-0.09,0.01-0.21,0.04-0.28c0.14-0.33,0.28-0.65,0.42-0.98c0.1-0.22,0.19-0.45,0.28-0.68
		c0.18-0.44,0.36-0.89,0.55-1.33c0.02,0.02,0.04,0.04,0.06,0.06c-0.12,0.39-0.24,0.8-0.38,1.18c-0.27,0.76-0.55,1.5-0.84,2.24
		c-0.1,0.25-0.18,0.54-0.4,0.57c-0.3,0.04-0.59,0.13-0.88,0.19C83.99,27.43,83.98,27.38,83.98,27.33z"/>
	<path class="st3" d="M85.33,20.39c-0.02-0.1-0.06-0.22-0.05-0.29c0.13-0.5,0.27-1.01,0.44-1.48c0.04-0.12,0.22-0.1,0.34-0.1
		c-0.35,0.5-0.58,1.11-0.65,1.88C85.39,20.39,85.36,20.39,85.33,20.39z"/>
	<path class="st3" d="M84.4,23.77c0.13,0.02,0.26,0,0.38,0.06c0.2,0.09,0.21,0.38,0.18,0.67c-0.01,0.08-0.07,0.15-0.11,0.22
		c-0.04-0.07-0.07-0.13-0.11-0.2c-0.08-0.16-0.16-0.32-0.25-0.47c-0.03-0.05-0.08-0.08-0.12-0.11
		C84.38,23.88,84.39,23.83,84.4,23.77z"/>
</g>
</svg>
